<svg xmlns="http://www.w3.org/2000/svg" viewBox="0 0 48 48" width="24px" height="24px">
  <path fill="#4285F4" d="M24 9.5c3.9 0 6.4 1.7 7.9 3.2l5.9-5.9C33.4 4.3 28.9 2 24 2 14.8 2 7.4 7.6 4.3 15.4l6.9 5.3C12.8 14.4 18.1 9.5 24 9.5z"/>
  <path fill="#34A853" d="M46.5 24.6c0-1.5-.1-2.6-.3-3.8H24v7.3h12.6c-.5 3-2.1 5.4-4.6 7.1l6.9 5.3C43.6 36.7 46.5 31.2 46.5 24.6z"/>
  <path fill="#FBBC05" d="M11.2 28.7c-1-3-1-6.4 0-9.3L4.3 14.1C.4 20.3.4 27.7 4.3 33.9l6.9-5.2z"/>
  <path fill="#EA4335" d="M24 46c5.1 0 9.4-1.7 12.5-4.5l-6.9-5.3c-1.9 1.3-4.3 2.1-6.9 2.1-5.4 0-10-3.7-11.7-8.8l-6.9 5.2C7.4 40.4 14.8 46 24 46z"/>
  <path fill="none" d="M0 0h48v48H0z"/>
</svg>
